<mxfile host="app.diagrams.net" modified="2022-10-07T19:01:58.945Z" agent="5.0 (Windows NT 10.0; Win64; x64) AppleWebKit/537.36 (KHTML, like Gecko) Chrome/105.0.0.0 Safari/537.36 OPR/91.0.4516.65" etag="S27lxInlaIl8W_QlJDuQ" version="20.3.6" type="github">
  <diagram id="C5RBs43oDa-KdzZeNtuy" name="Page-1">
    <mxGraphModel dx="1302" dy="615" grid="0" gridSize="10" guides="1" tooltips="1" connect="1" arrows="1" fold="1" page="1" pageScale="1" pageWidth="827" pageHeight="1169" math="0" shadow="0">
      <root>
        <mxCell id="WIyWlLk6GJQsqaUBKTNV-0" />
        <mxCell id="WIyWlLk6GJQsqaUBKTNV-1" parent="WIyWlLk6GJQsqaUBKTNV-0" />
        <mxCell id="GQmxgL6uchPmQ1sW0K6H-25" value="Product" style="shape=table;startSize=30;container=1;collapsible=0;childLayout=tableLayout;fixedRows=1;rowLines=0;fontStyle=1;rounded=1;sketch=0;fontFamily=Times New Roman;fontSize=16;fontColor=#333333;fillColor=#f5f5f5;gradientColor=none;html=1;strokeColor=#666666;" parent="WIyWlLk6GJQsqaUBKTNV-1" vertex="1">
          <mxGeometry x="80" y="70" width="190" height="360" as="geometry" />
        </mxCell>
        <mxCell id="GQmxgL6uchPmQ1sW0K6H-26" value="" style="shape=tableRow;horizontal=0;startSize=0;swimlaneHead=0;swimlaneBody=0;top=0;left=0;bottom=0;right=0;collapsible=0;dropTarget=0;fillColor=none;points=[[0,0.5],[1,0.5]];portConstraint=eastwest;rounded=0;sketch=0;fontFamily=Times New Roman;fontSize=16;fontColor=#333333;html=1;fontStyle=1" parent="GQmxgL6uchPmQ1sW0K6H-25" vertex="1">
          <mxGeometry y="30" width="190" height="30" as="geometry" />
        </mxCell>
        <mxCell id="GQmxgL6uchPmQ1sW0K6H-27" value="PK" style="shape=partialRectangle;html=1;whiteSpace=wrap;connectable=0;fillColor=none;top=0;left=0;bottom=0;right=0;overflow=hidden;pointerEvents=1;rounded=0;sketch=0;fontFamily=Times New Roman;fontSize=16;fontColor=#333333;startSize=30;fontStyle=1" parent="GQmxgL6uchPmQ1sW0K6H-26" vertex="1">
          <mxGeometry width="40" height="30" as="geometry">
            <mxRectangle width="40" height="30" as="alternateBounds" />
          </mxGeometry>
        </mxCell>
        <mxCell id="GQmxgL6uchPmQ1sW0K6H-28" value="product_id" style="shape=partialRectangle;html=1;whiteSpace=wrap;connectable=0;fillColor=none;top=0;left=0;bottom=0;right=0;align=left;spacingLeft=6;overflow=hidden;rounded=0;sketch=0;fontFamily=Times New Roman;fontSize=16;fontColor=#333333;startSize=30;fontStyle=5" parent="GQmxgL6uchPmQ1sW0K6H-26" vertex="1">
          <mxGeometry x="40" width="150" height="30" as="geometry">
            <mxRectangle width="150" height="30" as="alternateBounds" />
          </mxGeometry>
        </mxCell>
        <mxCell id="GQmxgL6uchPmQ1sW0K6H-55" style="shape=tableRow;horizontal=0;startSize=0;swimlaneHead=0;swimlaneBody=0;top=0;left=0;bottom=1;right=0;collapsible=0;dropTarget=0;fillColor=none;points=[[0,0.5],[1,0.5]];portConstraint=eastwest;rounded=0;sketch=0;fontFamily=Times New Roman;fontSize=16;fontColor=#333333;html=1;fontStyle=5" parent="GQmxgL6uchPmQ1sW0K6H-25" vertex="1">
          <mxGeometry y="60" width="190" height="30" as="geometry" />
        </mxCell>
        <mxCell id="GQmxgL6uchPmQ1sW0K6H-56" value="&lt;b&gt;FK&lt;/b&gt;" style="shape=partialRectangle;html=1;whiteSpace=wrap;connectable=0;fillColor=none;top=0;left=0;bottom=0;right=0;overflow=hidden;rounded=0;sketch=0;fontFamily=Times New Roman;fontSize=16;fontColor=#333333;startSize=30;" parent="GQmxgL6uchPmQ1sW0K6H-55" vertex="1">
          <mxGeometry width="40" height="30" as="geometry">
            <mxRectangle width="40" height="30" as="alternateBounds" />
          </mxGeometry>
        </mxCell>
        <mxCell id="GQmxgL6uchPmQ1sW0K6H-57" value="category_id" style="shape=partialRectangle;html=1;whiteSpace=wrap;connectable=0;fillColor=none;top=0;left=0;bottom=0;right=0;align=left;spacingLeft=6;overflow=hidden;rounded=0;sketch=0;fontFamily=Times New Roman;fontSize=16;fontColor=#333333;startSize=30;fontStyle=5" parent="GQmxgL6uchPmQ1sW0K6H-55" vertex="1">
          <mxGeometry x="40" width="150" height="30" as="geometry">
            <mxRectangle width="150" height="30" as="alternateBounds" />
          </mxGeometry>
        </mxCell>
        <mxCell id="GQmxgL6uchPmQ1sW0K6H-29" value="" style="shape=tableRow;horizontal=0;startSize=0;swimlaneHead=0;swimlaneBody=0;top=0;left=0;bottom=0;right=0;collapsible=0;dropTarget=0;fillColor=none;points=[[0,0.5],[1,0.5]];portConstraint=eastwest;rounded=0;sketch=0;fontFamily=Times New Roman;fontSize=16;fontColor=#333333;html=1;" parent="GQmxgL6uchPmQ1sW0K6H-25" vertex="1">
          <mxGeometry y="90" width="190" height="30" as="geometry" />
        </mxCell>
        <mxCell id="GQmxgL6uchPmQ1sW0K6H-30" value="" style="shape=partialRectangle;html=1;whiteSpace=wrap;connectable=0;fillColor=none;top=0;left=0;bottom=0;right=0;overflow=hidden;rounded=0;sketch=0;fontFamily=Times New Roman;fontSize=16;fontColor=#333333;startSize=30;" parent="GQmxgL6uchPmQ1sW0K6H-29" vertex="1">
          <mxGeometry width="40" height="30" as="geometry">
            <mxRectangle width="40" height="30" as="alternateBounds" />
          </mxGeometry>
        </mxCell>
        <mxCell id="GQmxgL6uchPmQ1sW0K6H-31" value="name" style="shape=partialRectangle;html=1;whiteSpace=wrap;connectable=0;fillColor=none;top=0;left=0;bottom=0;right=0;align=left;spacingLeft=6;overflow=hidden;rounded=0;sketch=0;fontFamily=Times New Roman;fontSize=16;fontColor=#333333;startSize=30;" parent="GQmxgL6uchPmQ1sW0K6H-29" vertex="1">
          <mxGeometry x="40" width="150" height="30" as="geometry">
            <mxRectangle width="150" height="30" as="alternateBounds" />
          </mxGeometry>
        </mxCell>
        <mxCell id="GQmxgL6uchPmQ1sW0K6H-32" value="" style="shape=tableRow;horizontal=0;startSize=0;swimlaneHead=0;swimlaneBody=0;top=0;left=0;bottom=0;right=0;collapsible=0;dropTarget=0;fillColor=none;points=[[0,0.5],[1,0.5]];portConstraint=eastwest;rounded=0;sketch=0;fontFamily=Times New Roman;fontSize=16;fontColor=#333333;html=1;" parent="GQmxgL6uchPmQ1sW0K6H-25" vertex="1">
          <mxGeometry y="120" width="190" height="30" as="geometry" />
        </mxCell>
        <mxCell id="GQmxgL6uchPmQ1sW0K6H-33" value="" style="shape=partialRectangle;html=1;whiteSpace=wrap;connectable=0;fillColor=none;top=0;left=0;bottom=0;right=0;overflow=hidden;rounded=0;sketch=0;fontFamily=Times New Roman;fontSize=16;fontColor=#333333;startSize=30;" parent="GQmxgL6uchPmQ1sW0K6H-32" vertex="1">
          <mxGeometry width="40" height="30" as="geometry">
            <mxRectangle width="40" height="30" as="alternateBounds" />
          </mxGeometry>
        </mxCell>
        <mxCell id="GQmxgL6uchPmQ1sW0K6H-34" value="description" style="shape=partialRectangle;html=1;whiteSpace=wrap;connectable=0;fillColor=none;top=0;left=0;bottom=0;right=0;align=left;spacingLeft=6;overflow=hidden;rounded=0;sketch=0;fontFamily=Times New Roman;fontSize=16;fontColor=#333333;startSize=30;" parent="GQmxgL6uchPmQ1sW0K6H-32" vertex="1">
          <mxGeometry x="40" width="150" height="30" as="geometry">
            <mxRectangle width="150" height="30" as="alternateBounds" />
          </mxGeometry>
        </mxCell>
        <mxCell id="GQmxgL6uchPmQ1sW0K6H-61" style="shape=tableRow;horizontal=0;startSize=0;swimlaneHead=0;swimlaneBody=0;top=0;left=0;bottom=0;right=0;collapsible=0;dropTarget=0;fillColor=none;points=[[0,0.5],[1,0.5]];portConstraint=eastwest;rounded=0;sketch=0;fontFamily=Times New Roman;fontSize=16;fontColor=#333333;html=1;" parent="GQmxgL6uchPmQ1sW0K6H-25" vertex="1">
          <mxGeometry y="150" width="190" height="30" as="geometry" />
        </mxCell>
        <mxCell id="GQmxgL6uchPmQ1sW0K6H-62" style="shape=partialRectangle;html=1;whiteSpace=wrap;connectable=0;fillColor=none;top=0;left=0;bottom=0;right=0;overflow=hidden;rounded=0;sketch=0;fontFamily=Times New Roman;fontSize=16;fontColor=#333333;startSize=30;" parent="GQmxgL6uchPmQ1sW0K6H-61" vertex="1">
          <mxGeometry width="40" height="30" as="geometry">
            <mxRectangle width="40" height="30" as="alternateBounds" />
          </mxGeometry>
        </mxCell>
        <mxCell id="GQmxgL6uchPmQ1sW0K6H-63" value="color" style="shape=partialRectangle;html=1;whiteSpace=wrap;connectable=0;fillColor=none;top=0;left=0;bottom=0;right=0;align=left;spacingLeft=6;overflow=hidden;rounded=0;sketch=0;fontFamily=Times New Roman;fontSize=16;fontColor=#333333;startSize=30;" parent="GQmxgL6uchPmQ1sW0K6H-61" vertex="1">
          <mxGeometry x="40" width="150" height="30" as="geometry">
            <mxRectangle width="150" height="30" as="alternateBounds" />
          </mxGeometry>
        </mxCell>
        <mxCell id="GQmxgL6uchPmQ1sW0K6H-52" style="shape=tableRow;horizontal=0;startSize=0;swimlaneHead=0;swimlaneBody=0;top=0;left=0;bottom=0;right=0;collapsible=0;dropTarget=0;fillColor=none;points=[[0,0.5],[1,0.5]];portConstraint=eastwest;rounded=0;sketch=0;fontFamily=Times New Roman;fontSize=16;fontColor=#333333;html=1;" parent="GQmxgL6uchPmQ1sW0K6H-25" vertex="1">
          <mxGeometry y="180" width="190" height="30" as="geometry" />
        </mxCell>
        <mxCell id="GQmxgL6uchPmQ1sW0K6H-53" style="shape=partialRectangle;html=1;whiteSpace=wrap;connectable=0;fillColor=none;top=0;left=0;bottom=0;right=0;overflow=hidden;rounded=0;sketch=0;fontFamily=Times New Roman;fontSize=16;fontColor=#333333;startSize=30;" parent="GQmxgL6uchPmQ1sW0K6H-52" vertex="1">
          <mxGeometry width="40" height="30" as="geometry">
            <mxRectangle width="40" height="30" as="alternateBounds" />
          </mxGeometry>
        </mxCell>
        <mxCell id="GQmxgL6uchPmQ1sW0K6H-54" value="materials" style="shape=partialRectangle;html=1;whiteSpace=wrap;connectable=0;fillColor=none;top=0;left=0;bottom=0;right=0;align=left;spacingLeft=6;overflow=hidden;rounded=0;sketch=0;fontFamily=Times New Roman;fontSize=16;fontColor=#333333;startSize=30;" parent="GQmxgL6uchPmQ1sW0K6H-52" vertex="1">
          <mxGeometry x="40" width="150" height="30" as="geometry">
            <mxRectangle width="150" height="30" as="alternateBounds" />
          </mxGeometry>
        </mxCell>
        <mxCell id="GQmxgL6uchPmQ1sW0K6H-146" style="shape=tableRow;horizontal=0;startSize=0;swimlaneHead=0;swimlaneBody=0;top=0;left=0;bottom=0;right=0;collapsible=0;dropTarget=0;fillColor=none;points=[[0,0.5],[1,0.5]];portConstraint=eastwest;rounded=0;sketch=0;fontFamily=Times New Roman;fontSize=16;fontColor=#333333;html=1;" parent="GQmxgL6uchPmQ1sW0K6H-25" vertex="1">
          <mxGeometry y="210" width="190" height="30" as="geometry" />
        </mxCell>
        <mxCell id="GQmxgL6uchPmQ1sW0K6H-147" style="shape=partialRectangle;html=1;whiteSpace=wrap;connectable=0;fillColor=none;top=0;left=0;bottom=0;right=0;overflow=hidden;rounded=0;sketch=0;fontFamily=Times New Roman;fontSize=16;fontColor=#333333;startSize=30;" parent="GQmxgL6uchPmQ1sW0K6H-146" vertex="1">
          <mxGeometry width="40" height="30" as="geometry">
            <mxRectangle width="40" height="30" as="alternateBounds" />
          </mxGeometry>
        </mxCell>
        <mxCell id="GQmxgL6uchPmQ1sW0K6H-148" value="initial_price" style="shape=partialRectangle;html=1;whiteSpace=wrap;connectable=0;fillColor=none;top=0;left=0;bottom=0;right=0;align=left;spacingLeft=6;overflow=hidden;rounded=0;sketch=0;fontFamily=Times New Roman;fontSize=16;fontColor=#333333;startSize=30;" parent="GQmxgL6uchPmQ1sW0K6H-146" vertex="1">
          <mxGeometry x="40" width="150" height="30" as="geometry">
            <mxRectangle width="150" height="30" as="alternateBounds" />
          </mxGeometry>
        </mxCell>
        <mxCell id="GQmxgL6uchPmQ1sW0K6H-149" style="shape=tableRow;horizontal=0;startSize=0;swimlaneHead=0;swimlaneBody=0;top=0;left=0;bottom=0;right=0;collapsible=0;dropTarget=0;fillColor=none;points=[[0,0.5],[1,0.5]];portConstraint=eastwest;rounded=0;sketch=0;fontFamily=Times New Roman;fontSize=16;fontColor=#333333;html=1;" parent="GQmxgL6uchPmQ1sW0K6H-25" vertex="1">
          <mxGeometry y="240" width="190" height="30" as="geometry" />
        </mxCell>
        <mxCell id="GQmxgL6uchPmQ1sW0K6H-150" style="shape=partialRectangle;html=1;whiteSpace=wrap;connectable=0;fillColor=none;top=0;left=0;bottom=0;right=0;overflow=hidden;rounded=0;sketch=0;fontFamily=Times New Roman;fontSize=16;fontColor=#333333;startSize=30;" parent="GQmxgL6uchPmQ1sW0K6H-149" vertex="1">
          <mxGeometry width="40" height="30" as="geometry">
            <mxRectangle width="40" height="30" as="alternateBounds" />
          </mxGeometry>
        </mxCell>
        <mxCell id="GQmxgL6uchPmQ1sW0K6H-151" value="current_price" style="shape=partialRectangle;html=1;whiteSpace=wrap;connectable=0;fillColor=none;top=0;left=0;bottom=0;right=0;align=left;spacingLeft=6;overflow=hidden;rounded=0;sketch=0;fontFamily=Times New Roman;fontSize=16;fontColor=#333333;startSize=30;" parent="GQmxgL6uchPmQ1sW0K6H-149" vertex="1">
          <mxGeometry x="40" width="150" height="30" as="geometry">
            <mxRectangle width="150" height="30" as="alternateBounds" />
          </mxGeometry>
        </mxCell>
        <mxCell id="GQmxgL6uchPmQ1sW0K6H-49" style="shape=tableRow;horizontal=0;startSize=0;swimlaneHead=0;swimlaneBody=0;top=0;left=0;bottom=0;right=0;collapsible=0;dropTarget=0;fillColor=none;points=[[0,0.5],[1,0.5]];portConstraint=eastwest;rounded=0;sketch=0;fontFamily=Times New Roman;fontSize=16;fontColor=#333333;html=1;" parent="GQmxgL6uchPmQ1sW0K6H-25" vertex="1">
          <mxGeometry y="270" width="190" height="30" as="geometry" />
        </mxCell>
        <mxCell id="GQmxgL6uchPmQ1sW0K6H-50" style="shape=partialRectangle;html=1;whiteSpace=wrap;connectable=0;fillColor=none;top=0;left=0;bottom=0;right=0;overflow=hidden;rounded=0;sketch=0;fontFamily=Times New Roman;fontSize=16;fontColor=#333333;startSize=30;" parent="GQmxgL6uchPmQ1sW0K6H-49" vertex="1">
          <mxGeometry width="40" height="30" as="geometry">
            <mxRectangle width="40" height="30" as="alternateBounds" />
          </mxGeometry>
        </mxCell>
        <mxCell id="GQmxgL6uchPmQ1sW0K6H-51" value="release_date" style="shape=partialRectangle;html=1;whiteSpace=wrap;connectable=0;fillColor=none;top=0;left=0;bottom=0;right=0;align=left;spacingLeft=6;overflow=hidden;rounded=0;sketch=0;fontFamily=Times New Roman;fontSize=16;fontColor=#333333;startSize=30;" parent="GQmxgL6uchPmQ1sW0K6H-49" vertex="1">
          <mxGeometry x="40" width="150" height="30" as="geometry">
            <mxRectangle width="150" height="30" as="alternateBounds" />
          </mxGeometry>
        </mxCell>
        <mxCell id="GQmxgL6uchPmQ1sW0K6H-46" style="shape=tableRow;horizontal=0;startSize=0;swimlaneHead=0;swimlaneBody=0;top=0;left=0;bottom=0;right=0;collapsible=0;dropTarget=0;fillColor=none;points=[[0,0.5],[1,0.5]];portConstraint=eastwest;rounded=0;sketch=0;fontFamily=Times New Roman;fontSize=16;fontColor=#333333;html=1;" parent="GQmxgL6uchPmQ1sW0K6H-25" vertex="1">
          <mxGeometry y="300" width="190" height="30" as="geometry" />
        </mxCell>
        <mxCell id="GQmxgL6uchPmQ1sW0K6H-47" style="shape=partialRectangle;html=1;whiteSpace=wrap;connectable=0;fillColor=none;top=0;left=0;bottom=0;right=0;overflow=hidden;rounded=0;sketch=0;fontFamily=Times New Roman;fontSize=16;fontColor=#333333;startSize=30;" parent="GQmxgL6uchPmQ1sW0K6H-46" vertex="1">
          <mxGeometry width="40" height="30" as="geometry">
            <mxRectangle width="40" height="30" as="alternateBounds" />
          </mxGeometry>
        </mxCell>
        <mxCell id="GQmxgL6uchPmQ1sW0K6H-48" value="state_of_shown_info" style="shape=partialRectangle;html=1;whiteSpace=wrap;connectable=0;fillColor=none;top=0;left=0;bottom=0;right=0;align=left;spacingLeft=6;overflow=hidden;rounded=0;sketch=0;fontFamily=Times New Roman;fontSize=16;fontColor=#333333;startSize=30;" parent="GQmxgL6uchPmQ1sW0K6H-46" vertex="1">
          <mxGeometry x="40" width="150" height="30" as="geometry">
            <mxRectangle width="150" height="30" as="alternateBounds" />
          </mxGeometry>
        </mxCell>
        <mxCell id="GQmxgL6uchPmQ1sW0K6H-43" style="shape=tableRow;horizontal=0;startSize=0;swimlaneHead=0;swimlaneBody=0;top=0;left=0;bottom=0;right=0;collapsible=0;dropTarget=0;fillColor=none;points=[[0,0.5],[1,0.5]];portConstraint=eastwest;rounded=0;sketch=0;fontFamily=Times New Roman;fontSize=16;fontColor=#333333;html=1;" parent="GQmxgL6uchPmQ1sW0K6H-25" vertex="1">
          <mxGeometry y="330" width="190" height="30" as="geometry" />
        </mxCell>
        <mxCell id="GQmxgL6uchPmQ1sW0K6H-44" style="shape=partialRectangle;html=1;whiteSpace=wrap;connectable=0;fillColor=none;top=0;left=0;bottom=0;right=0;overflow=hidden;rounded=0;sketch=0;fontFamily=Times New Roman;fontSize=16;fontColor=#333333;startSize=30;" parent="GQmxgL6uchPmQ1sW0K6H-43" vertex="1">
          <mxGeometry width="40" height="30" as="geometry">
            <mxRectangle width="40" height="30" as="alternateBounds" />
          </mxGeometry>
        </mxCell>
        <mxCell id="GQmxgL6uchPmQ1sW0K6H-45" value="count_of_visitors" style="shape=partialRectangle;html=1;whiteSpace=wrap;connectable=0;fillColor=none;top=0;left=0;bottom=0;right=0;align=left;spacingLeft=6;overflow=hidden;rounded=0;sketch=0;fontFamily=Times New Roman;fontSize=16;fontColor=#333333;startSize=30;" parent="GQmxgL6uchPmQ1sW0K6H-43" vertex="1">
          <mxGeometry x="40" width="150" height="30" as="geometry">
            <mxRectangle width="150" height="30" as="alternateBounds" />
          </mxGeometry>
        </mxCell>
        <mxCell id="GQmxgL6uchPmQ1sW0K6H-64" value="Photo" style="shape=table;startSize=30;container=1;collapsible=0;childLayout=tableLayout;fixedRows=1;rowLines=0;fontStyle=1;rounded=1;sketch=0;fontFamily=Times New Roman;fontSize=16;fontColor=#333333;fillColor=#f5f5f5;gradientColor=none;html=1;strokeColor=#666666;" parent="WIyWlLk6GJQsqaUBKTNV-1" vertex="1">
          <mxGeometry x="332" y="541" width="190" height="121" as="geometry" />
        </mxCell>
        <mxCell id="GQmxgL6uchPmQ1sW0K6H-65" value="" style="shape=tableRow;horizontal=0;startSize=0;swimlaneHead=0;swimlaneBody=0;top=0;left=0;bottom=0;right=0;collapsible=0;dropTarget=0;fillColor=none;points=[[0,0.5],[1,0.5]];portConstraint=eastwest;rounded=0;sketch=0;fontFamily=Times New Roman;fontSize=16;fontColor=#333333;html=1;fontStyle=5" parent="GQmxgL6uchPmQ1sW0K6H-64" vertex="1">
          <mxGeometry y="30" width="190" height="30" as="geometry" />
        </mxCell>
        <mxCell id="GQmxgL6uchPmQ1sW0K6H-66" value="PK, FK" style="shape=partialRectangle;html=1;whiteSpace=wrap;connectable=0;fillColor=none;top=0;left=0;bottom=0;right=0;overflow=hidden;pointerEvents=1;rounded=0;sketch=0;fontFamily=Times New Roman;fontSize=16;fontColor=#333333;startSize=30;fontStyle=1" parent="GQmxgL6uchPmQ1sW0K6H-65" vertex="1">
          <mxGeometry width="65" height="30" as="geometry">
            <mxRectangle width="65" height="30" as="alternateBounds" />
          </mxGeometry>
        </mxCell>
        <mxCell id="GQmxgL6uchPmQ1sW0K6H-67" value="product_id" style="shape=partialRectangle;html=1;whiteSpace=wrap;connectable=0;fillColor=none;top=0;left=0;bottom=0;right=0;align=left;spacingLeft=6;overflow=hidden;rounded=0;sketch=0;fontFamily=Times New Roman;fontSize=16;fontColor=#333333;startSize=30;fontStyle=5" parent="GQmxgL6uchPmQ1sW0K6H-65" vertex="1">
          <mxGeometry x="65" width="125" height="30" as="geometry">
            <mxRectangle width="125" height="30" as="alternateBounds" />
          </mxGeometry>
        </mxCell>
        <mxCell id="GQmxgL6uchPmQ1sW0K6H-92" style="shape=tableRow;horizontal=0;startSize=0;swimlaneHead=0;swimlaneBody=0;top=0;left=0;bottom=1;right=0;collapsible=0;dropTarget=0;fillColor=none;points=[[0,0.5],[1,0.5]];portConstraint=eastwest;rounded=0;sketch=0;fontFamily=Times New Roman;fontSize=16;fontColor=#333333;html=1;fontStyle=5" parent="GQmxgL6uchPmQ1sW0K6H-64" vertex="1">
          <mxGeometry y="60" width="190" height="30" as="geometry" />
        </mxCell>
        <mxCell id="GQmxgL6uchPmQ1sW0K6H-93" value="PK" style="shape=partialRectangle;html=1;whiteSpace=wrap;connectable=0;fillColor=none;top=0;left=0;bottom=0;right=0;overflow=hidden;rounded=0;sketch=0;fontFamily=Times New Roman;fontSize=16;fontColor=#333333;startSize=30;fontStyle=1" parent="GQmxgL6uchPmQ1sW0K6H-92" vertex="1">
          <mxGeometry width="65" height="30" as="geometry">
            <mxRectangle width="65" height="30" as="alternateBounds" />
          </mxGeometry>
        </mxCell>
        <mxCell id="GQmxgL6uchPmQ1sW0K6H-94" value="position" style="shape=partialRectangle;html=1;whiteSpace=wrap;connectable=0;fillColor=none;top=0;left=0;bottom=0;right=0;align=left;spacingLeft=6;overflow=hidden;rounded=0;sketch=0;fontFamily=Times New Roman;fontSize=16;fontColor=#333333;startSize=30;fontStyle=5" parent="GQmxgL6uchPmQ1sW0K6H-92" vertex="1">
          <mxGeometry x="65" width="125" height="30" as="geometry">
            <mxRectangle width="125" height="30" as="alternateBounds" />
          </mxGeometry>
        </mxCell>
        <mxCell id="GQmxgL6uchPmQ1sW0K6H-68" value="" style="shape=tableRow;horizontal=0;startSize=0;swimlaneHead=0;swimlaneBody=0;top=0;left=0;bottom=0;right=0;collapsible=0;dropTarget=0;fillColor=none;points=[[0,0.5],[1,0.5]];portConstraint=eastwest;rounded=0;sketch=0;fontFamily=Times New Roman;fontSize=16;fontColor=#333333;html=1;" parent="GQmxgL6uchPmQ1sW0K6H-64" vertex="1">
          <mxGeometry y="90" width="190" height="31" as="geometry" />
        </mxCell>
        <mxCell id="GQmxgL6uchPmQ1sW0K6H-69" value="" style="shape=partialRectangle;html=1;whiteSpace=wrap;connectable=0;fillColor=none;top=0;left=0;bottom=0;right=0;overflow=hidden;rounded=0;sketch=0;fontFamily=Times New Roman;fontSize=16;fontColor=#333333;startSize=30;" parent="GQmxgL6uchPmQ1sW0K6H-68" vertex="1">
          <mxGeometry width="65" height="31" as="geometry">
            <mxRectangle width="65" height="31" as="alternateBounds" />
          </mxGeometry>
        </mxCell>
        <mxCell id="GQmxgL6uchPmQ1sW0K6H-70" value="product_photo" style="shape=partialRectangle;html=1;whiteSpace=wrap;connectable=0;fillColor=none;top=0;left=0;bottom=0;right=0;align=left;spacingLeft=6;overflow=hidden;rounded=0;sketch=0;fontFamily=Times New Roman;fontSize=16;fontColor=#333333;startSize=30;" parent="GQmxgL6uchPmQ1sW0K6H-68" vertex="1">
          <mxGeometry x="65" width="125" height="31" as="geometry">
            <mxRectangle width="125" height="31" as="alternateBounds" />
          </mxGeometry>
        </mxCell>
        <mxCell id="GQmxgL6uchPmQ1sW0K6H-95" value="Category" style="shape=table;startSize=30;container=1;collapsible=0;childLayout=tableLayout;fixedRows=1;rowLines=0;fontStyle=1;rounded=1;sketch=0;fontFamily=Times New Roman;fontSize=16;fontColor=#333333;fillColor=#f5f5f5;gradientColor=none;html=1;strokeColor=#666666;" parent="WIyWlLk6GJQsqaUBKTNV-1" vertex="1">
          <mxGeometry x="332" y="309" width="190" height="121" as="geometry" />
        </mxCell>
        <mxCell id="GQmxgL6uchPmQ1sW0K6H-96" value="" style="shape=tableRow;horizontal=0;startSize=0;swimlaneHead=0;swimlaneBody=0;top=0;left=0;bottom=0;right=0;collapsible=0;dropTarget=0;fillColor=none;points=[[0,0.5],[1,0.5]];portConstraint=eastwest;rounded=0;sketch=0;fontFamily=Times New Roman;fontSize=16;fontColor=#333333;html=1;" parent="GQmxgL6uchPmQ1sW0K6H-95" vertex="1">
          <mxGeometry y="30" width="190" height="30" as="geometry" />
        </mxCell>
        <mxCell id="GQmxgL6uchPmQ1sW0K6H-97" value="PK" style="shape=partialRectangle;html=1;whiteSpace=wrap;connectable=0;fillColor=none;top=0;left=0;bottom=0;right=0;overflow=hidden;pointerEvents=1;rounded=0;sketch=0;fontFamily=Times New Roman;fontSize=16;fontColor=#333333;startSize=30;fontStyle=1" parent="GQmxgL6uchPmQ1sW0K6H-96" vertex="1">
          <mxGeometry width="40" height="30" as="geometry">
            <mxRectangle width="40" height="30" as="alternateBounds" />
          </mxGeometry>
        </mxCell>
        <mxCell id="GQmxgL6uchPmQ1sW0K6H-98" value="category_id" style="shape=partialRectangle;html=1;whiteSpace=wrap;connectable=0;fillColor=none;top=0;left=0;bottom=0;right=0;align=left;spacingLeft=6;overflow=hidden;rounded=0;sketch=0;fontFamily=Times New Roman;fontSize=16;fontColor=#333333;startSize=30;fontStyle=5" parent="GQmxgL6uchPmQ1sW0K6H-96" vertex="1">
          <mxGeometry x="40" width="150" height="30" as="geometry">
            <mxRectangle width="150" height="30" as="alternateBounds" />
          </mxGeometry>
        </mxCell>
        <mxCell id="GQmxgL6uchPmQ1sW0K6H-102" value="" style="shape=tableRow;horizontal=0;startSize=0;swimlaneHead=0;swimlaneBody=0;top=0;left=0;bottom=1;right=0;collapsible=0;dropTarget=0;fillColor=none;points=[[0,0.5],[1,0.5]];portConstraint=eastwest;rounded=0;sketch=0;fontFamily=Times New Roman;fontSize=16;fontColor=#333333;html=1;" parent="GQmxgL6uchPmQ1sW0K6H-95" vertex="1">
          <mxGeometry y="60" width="190" height="31" as="geometry" />
        </mxCell>
        <mxCell id="GQmxgL6uchPmQ1sW0K6H-103" value="&lt;b&gt;FK&lt;/b&gt;" style="shape=partialRectangle;html=1;whiteSpace=wrap;connectable=0;fillColor=none;top=0;left=0;bottom=0;right=0;overflow=hidden;rounded=0;sketch=0;fontFamily=Times New Roman;fontSize=16;fontColor=#333333;startSize=30;" parent="GQmxgL6uchPmQ1sW0K6H-102" vertex="1">
          <mxGeometry width="40" height="31" as="geometry">
            <mxRectangle width="40" height="31" as="alternateBounds" />
          </mxGeometry>
        </mxCell>
        <mxCell id="GQmxgL6uchPmQ1sW0K6H-104" value="&lt;u&gt;parent_category_id&lt;/u&gt;" style="shape=partialRectangle;html=1;whiteSpace=wrap;connectable=0;fillColor=none;top=0;left=0;bottom=0;right=0;align=left;spacingLeft=6;overflow=hidden;rounded=0;sketch=0;fontFamily=Times New Roman;fontSize=16;fontColor=#333333;startSize=30;fontStyle=1" parent="GQmxgL6uchPmQ1sW0K6H-102" vertex="1">
          <mxGeometry x="40" width="150" height="31" as="geometry">
            <mxRectangle width="150" height="31" as="alternateBounds" />
          </mxGeometry>
        </mxCell>
        <mxCell id="GQmxgL6uchPmQ1sW0K6H-99" style="shape=tableRow;horizontal=0;startSize=0;swimlaneHead=0;swimlaneBody=0;top=0;left=0;bottom=0;right=0;collapsible=0;dropTarget=0;fillColor=none;points=[[0,0.5],[1,0.5]];portConstraint=eastwest;rounded=0;sketch=0;fontFamily=Times New Roman;fontSize=16;fontColor=#333333;html=1;" parent="GQmxgL6uchPmQ1sW0K6H-95" vertex="1">
          <mxGeometry y="91" width="190" height="30" as="geometry" />
        </mxCell>
        <mxCell id="GQmxgL6uchPmQ1sW0K6H-100" style="shape=partialRectangle;html=1;whiteSpace=wrap;connectable=0;fillColor=none;top=0;left=0;bottom=0;right=0;overflow=hidden;rounded=0;sketch=0;fontFamily=Times New Roman;fontSize=16;fontColor=#333333;startSize=30;" parent="GQmxgL6uchPmQ1sW0K6H-99" vertex="1">
          <mxGeometry width="40" height="30" as="geometry">
            <mxRectangle width="40" height="30" as="alternateBounds" />
          </mxGeometry>
        </mxCell>
        <mxCell id="GQmxgL6uchPmQ1sW0K6H-101" value="name" style="shape=partialRectangle;html=1;whiteSpace=wrap;connectable=0;fillColor=none;top=0;left=0;bottom=0;right=0;align=left;spacingLeft=6;overflow=hidden;rounded=0;sketch=0;fontFamily=Times New Roman;fontSize=16;fontColor=#333333;startSize=30;" parent="GQmxgL6uchPmQ1sW0K6H-99" vertex="1">
          <mxGeometry x="40" width="150" height="30" as="geometry">
            <mxRectangle width="150" height="30" as="alternateBounds" />
          </mxGeometry>
        </mxCell>
        <mxCell id="GQmxgL6uchPmQ1sW0K6H-105" value="Products Storage" style="shape=table;startSize=30;container=1;collapsible=0;childLayout=tableLayout;fixedRows=1;rowLines=0;fontStyle=1;rounded=1;sketch=0;fontFamily=Times New Roman;fontSize=16;fontColor=#333333;fillColor=#f5f5f5;gradientColor=none;html=1;strokeColor=#666666;" parent="WIyWlLk6GJQsqaUBKTNV-1" vertex="1">
          <mxGeometry x="80" y="537.5" width="190" height="121" as="geometry" />
        </mxCell>
        <mxCell id="GQmxgL6uchPmQ1sW0K6H-106" value="" style="shape=tableRow;horizontal=0;startSize=0;swimlaneHead=0;swimlaneBody=0;top=0;left=0;bottom=0;right=0;collapsible=0;dropTarget=0;fillColor=none;points=[[0,0.5],[1,0.5]];portConstraint=eastwest;rounded=0;sketch=0;fontFamily=Times New Roman;fontSize=16;fontColor=#333333;html=1;" parent="GQmxgL6uchPmQ1sW0K6H-105" vertex="1">
          <mxGeometry y="30" width="190" height="30" as="geometry" />
        </mxCell>
        <mxCell id="GQmxgL6uchPmQ1sW0K6H-107" value="PK, FK" style="shape=partialRectangle;html=1;whiteSpace=wrap;connectable=0;fillColor=none;top=0;left=0;bottom=0;right=0;overflow=hidden;pointerEvents=1;rounded=0;sketch=0;fontFamily=Times New Roman;fontSize=16;fontColor=#333333;startSize=30;fontStyle=1" parent="GQmxgL6uchPmQ1sW0K6H-106" vertex="1">
          <mxGeometry width="65" height="30" as="geometry">
            <mxRectangle width="65" height="30" as="alternateBounds" />
          </mxGeometry>
        </mxCell>
        <mxCell id="GQmxgL6uchPmQ1sW0K6H-108" value="product_id" style="shape=partialRectangle;html=1;whiteSpace=wrap;connectable=0;fillColor=none;top=0;left=0;bottom=0;right=0;align=left;spacingLeft=6;overflow=hidden;rounded=0;sketch=0;fontFamily=Times New Roman;fontSize=16;fontColor=#333333;startSize=30;fontStyle=5" parent="GQmxgL6uchPmQ1sW0K6H-106" vertex="1">
          <mxGeometry x="65" width="125" height="30" as="geometry">
            <mxRectangle width="125" height="30" as="alternateBounds" />
          </mxGeometry>
        </mxCell>
        <mxCell id="GQmxgL6uchPmQ1sW0K6H-109" style="shape=tableRow;horizontal=0;startSize=0;swimlaneHead=0;swimlaneBody=0;top=0;left=0;bottom=0;right=0;collapsible=0;dropTarget=0;fillColor=none;points=[[0,0.5],[1,0.5]];portConstraint=eastwest;rounded=0;sketch=0;fontFamily=Times New Roman;fontSize=16;fontColor=#333333;html=1;" parent="GQmxgL6uchPmQ1sW0K6H-105" vertex="1">
          <mxGeometry y="60" width="190" height="30" as="geometry" />
        </mxCell>
        <mxCell id="GQmxgL6uchPmQ1sW0K6H-110" value="PK" style="shape=partialRectangle;html=1;whiteSpace=wrap;connectable=0;fillColor=none;top=0;left=0;bottom=1;right=0;overflow=hidden;rounded=0;sketch=0;fontFamily=Times New Roman;fontSize=16;fontColor=#333333;startSize=30;fontStyle=1" parent="GQmxgL6uchPmQ1sW0K6H-109" vertex="1">
          <mxGeometry width="65" height="30" as="geometry">
            <mxRectangle width="65" height="30" as="alternateBounds" />
          </mxGeometry>
        </mxCell>
        <mxCell id="GQmxgL6uchPmQ1sW0K6H-111" value="size" style="shape=partialRectangle;html=1;whiteSpace=wrap;connectable=0;fillColor=none;top=0;left=0;bottom=1;right=0;align=left;spacingLeft=6;overflow=hidden;rounded=0;sketch=0;fontFamily=Times New Roman;fontSize=16;fontColor=#333333;startSize=30;fontStyle=5" parent="GQmxgL6uchPmQ1sW0K6H-109" vertex="1">
          <mxGeometry x="65" width="125" height="30" as="geometry">
            <mxRectangle width="125" height="30" as="alternateBounds" />
          </mxGeometry>
        </mxCell>
        <mxCell id="GQmxgL6uchPmQ1sW0K6H-112" value="" style="shape=tableRow;horizontal=0;startSize=0;swimlaneHead=0;swimlaneBody=0;top=0;left=0;bottom=0;right=0;collapsible=0;dropTarget=0;fillColor=none;points=[[0,0.5],[1,0.5]];portConstraint=eastwest;rounded=0;sketch=0;fontFamily=Times New Roman;fontSize=16;fontColor=#333333;html=1;" parent="GQmxgL6uchPmQ1sW0K6H-105" vertex="1">
          <mxGeometry y="90" width="190" height="31" as="geometry" />
        </mxCell>
        <mxCell id="GQmxgL6uchPmQ1sW0K6H-113" value="" style="shape=partialRectangle;html=1;whiteSpace=wrap;connectable=0;fillColor=none;top=0;left=0;bottom=0;right=0;overflow=hidden;rounded=0;sketch=0;fontFamily=Times New Roman;fontSize=16;fontColor=#333333;startSize=30;" parent="GQmxgL6uchPmQ1sW0K6H-112" vertex="1">
          <mxGeometry width="65" height="31" as="geometry">
            <mxRectangle width="65" height="31" as="alternateBounds" />
          </mxGeometry>
        </mxCell>
        <mxCell id="GQmxgL6uchPmQ1sW0K6H-114" value="count" style="shape=partialRectangle;html=1;whiteSpace=wrap;connectable=0;fillColor=none;top=0;left=0;bottom=0;right=0;align=left;spacingLeft=6;overflow=hidden;rounded=0;sketch=0;fontFamily=Times New Roman;fontSize=16;fontColor=#333333;startSize=30;" parent="GQmxgL6uchPmQ1sW0K6H-112" vertex="1">
          <mxGeometry x="65" width="125" height="31" as="geometry">
            <mxRectangle width="125" height="31" as="alternateBounds" />
          </mxGeometry>
        </mxCell>
        <mxCell id="GQmxgL6uchPmQ1sW0K6H-115" value="Order" style="shape=table;startSize=30;container=1;collapsible=0;childLayout=tableLayout;fixedRows=1;rowLines=0;fontStyle=1;rounded=1;sketch=0;fontFamily=Times New Roman;fontSize=16;fontColor=#333333;fillColor=#f5f5f5;gradientColor=none;html=1;strokeColor=#666666;" parent="WIyWlLk6GJQsqaUBKTNV-1" vertex="1">
          <mxGeometry x="584" y="70" width="190" height="417" as="geometry" />
        </mxCell>
        <mxCell id="GQmxgL6uchPmQ1sW0K6H-116" value="" style="shape=tableRow;horizontal=0;startSize=0;swimlaneHead=0;swimlaneBody=0;top=0;left=0;bottom=1;right=0;collapsible=0;dropTarget=0;fillColor=none;points=[[0,0.5],[1,0.5]];portConstraint=eastwest;rounded=0;sketch=0;fontFamily=Times New Roman;fontSize=16;fontColor=#333333;html=1;" parent="GQmxgL6uchPmQ1sW0K6H-115" vertex="1">
          <mxGeometry y="30" width="190" height="30" as="geometry" />
        </mxCell>
        <mxCell id="GQmxgL6uchPmQ1sW0K6H-117" value="PK" style="shape=partialRectangle;html=1;whiteSpace=wrap;connectable=0;fillColor=none;top=0;left=0;bottom=0;right=0;overflow=hidden;pointerEvents=1;rounded=0;sketch=0;fontFamily=Times New Roman;fontSize=16;fontColor=#333333;startSize=30;fontStyle=1" parent="GQmxgL6uchPmQ1sW0K6H-116" vertex="1">
          <mxGeometry width="40" height="30" as="geometry">
            <mxRectangle width="40" height="30" as="alternateBounds" />
          </mxGeometry>
        </mxCell>
        <mxCell id="GQmxgL6uchPmQ1sW0K6H-118" value="order_id" style="shape=partialRectangle;html=1;whiteSpace=wrap;connectable=0;fillColor=none;top=0;left=0;bottom=0;right=0;align=left;spacingLeft=6;overflow=hidden;rounded=0;sketch=0;fontFamily=Times New Roman;fontSize=16;fontColor=#333333;startSize=30;fontStyle=5" parent="GQmxgL6uchPmQ1sW0K6H-116" vertex="1">
          <mxGeometry x="40" width="150" height="30" as="geometry">
            <mxRectangle width="150" height="30" as="alternateBounds" />
          </mxGeometry>
        </mxCell>
        <mxCell id="GQmxgL6uchPmQ1sW0K6H-119" style="shape=tableRow;horizontal=0;startSize=0;swimlaneHead=0;swimlaneBody=0;top=0;left=0;bottom=0;right=0;collapsible=0;dropTarget=0;fillColor=none;points=[[0,0.5],[1,0.5]];portConstraint=eastwest;rounded=0;sketch=0;fontFamily=Times New Roman;fontSize=16;fontColor=#333333;html=1;" parent="GQmxgL6uchPmQ1sW0K6H-115" vertex="1">
          <mxGeometry y="60" width="190" height="28" as="geometry" />
        </mxCell>
        <mxCell id="GQmxgL6uchPmQ1sW0K6H-120" style="shape=partialRectangle;html=1;whiteSpace=wrap;connectable=0;fillColor=none;top=0;left=0;bottom=0;right=0;overflow=hidden;rounded=0;sketch=0;fontFamily=Times New Roman;fontSize=16;fontColor=#333333;startSize=30;" parent="GQmxgL6uchPmQ1sW0K6H-119" vertex="1">
          <mxGeometry width="40" height="28" as="geometry">
            <mxRectangle width="40" height="28" as="alternateBounds" />
          </mxGeometry>
        </mxCell>
        <mxCell id="GQmxgL6uchPmQ1sW0K6H-121" value="client_name" style="shape=partialRectangle;html=1;whiteSpace=wrap;connectable=0;fillColor=none;top=0;left=0;bottom=0;right=0;align=left;spacingLeft=6;overflow=hidden;rounded=0;sketch=0;fontFamily=Times New Roman;fontSize=16;fontColor=#333333;startSize=30;" parent="GQmxgL6uchPmQ1sW0K6H-119" vertex="1">
          <mxGeometry x="40" width="150" height="28" as="geometry">
            <mxRectangle width="150" height="28" as="alternateBounds" />
          </mxGeometry>
        </mxCell>
        <mxCell id="GQmxgL6uchPmQ1sW0K6H-134" style="shape=tableRow;horizontal=0;startSize=0;swimlaneHead=0;swimlaneBody=0;top=0;left=0;bottom=0;right=0;collapsible=0;dropTarget=0;fillColor=none;points=[[0,0.5],[1,0.5]];portConstraint=eastwest;rounded=0;sketch=0;fontFamily=Times New Roman;fontSize=16;fontColor=#333333;html=1;" parent="GQmxgL6uchPmQ1sW0K6H-115" vertex="1">
          <mxGeometry y="88" width="190" height="28" as="geometry" />
        </mxCell>
        <mxCell id="GQmxgL6uchPmQ1sW0K6H-135" style="shape=partialRectangle;html=1;whiteSpace=wrap;connectable=0;fillColor=none;top=0;left=0;bottom=0;right=0;overflow=hidden;rounded=0;sketch=0;fontFamily=Times New Roman;fontSize=16;fontColor=#333333;startSize=30;" parent="GQmxgL6uchPmQ1sW0K6H-134" vertex="1">
          <mxGeometry width="40" height="28" as="geometry">
            <mxRectangle width="40" height="28" as="alternateBounds" />
          </mxGeometry>
        </mxCell>
        <mxCell id="GQmxgL6uchPmQ1sW0K6H-136" value="post_index" style="shape=partialRectangle;html=1;whiteSpace=wrap;connectable=0;fillColor=none;top=0;left=0;bottom=0;right=0;align=left;spacingLeft=6;overflow=hidden;rounded=0;sketch=0;fontFamily=Times New Roman;fontSize=16;fontColor=#333333;startSize=30;" parent="GQmxgL6uchPmQ1sW0K6H-134" vertex="1">
          <mxGeometry x="40" width="150" height="28" as="geometry">
            <mxRectangle width="150" height="28" as="alternateBounds" />
          </mxGeometry>
        </mxCell>
        <mxCell id="GQmxgL6uchPmQ1sW0K6H-131" style="shape=tableRow;horizontal=0;startSize=0;swimlaneHead=0;swimlaneBody=0;top=0;left=0;bottom=0;right=0;collapsible=0;dropTarget=0;fillColor=none;points=[[0,0.5],[1,0.5]];portConstraint=eastwest;rounded=0;sketch=0;fontFamily=Times New Roman;fontSize=16;fontColor=#333333;html=1;" parent="GQmxgL6uchPmQ1sW0K6H-115" vertex="1">
          <mxGeometry y="116" width="190" height="28" as="geometry" />
        </mxCell>
        <mxCell id="GQmxgL6uchPmQ1sW0K6H-132" style="shape=partialRectangle;html=1;whiteSpace=wrap;connectable=0;fillColor=none;top=0;left=0;bottom=0;right=0;overflow=hidden;rounded=0;sketch=0;fontFamily=Times New Roman;fontSize=16;fontColor=#333333;startSize=30;" parent="GQmxgL6uchPmQ1sW0K6H-131" vertex="1">
          <mxGeometry width="40" height="28" as="geometry">
            <mxRectangle width="40" height="28" as="alternateBounds" />
          </mxGeometry>
        </mxCell>
        <mxCell id="GQmxgL6uchPmQ1sW0K6H-133" value="country" style="shape=partialRectangle;html=1;whiteSpace=wrap;connectable=0;fillColor=none;top=0;left=0;bottom=0;right=0;align=left;spacingLeft=6;overflow=hidden;rounded=0;sketch=0;fontFamily=Times New Roman;fontSize=16;fontColor=#333333;startSize=30;" parent="GQmxgL6uchPmQ1sW0K6H-131" vertex="1">
          <mxGeometry x="40" width="150" height="28" as="geometry">
            <mxRectangle width="150" height="28" as="alternateBounds" />
          </mxGeometry>
        </mxCell>
        <mxCell id="GQmxgL6uchPmQ1sW0K6H-128" style="shape=tableRow;horizontal=0;startSize=0;swimlaneHead=0;swimlaneBody=0;top=0;left=0;bottom=0;right=0;collapsible=0;dropTarget=0;fillColor=none;points=[[0,0.5],[1,0.5]];portConstraint=eastwest;rounded=0;sketch=0;fontFamily=Times New Roman;fontSize=16;fontColor=#333333;html=1;" parent="GQmxgL6uchPmQ1sW0K6H-115" vertex="1">
          <mxGeometry y="144" width="190" height="28" as="geometry" />
        </mxCell>
        <mxCell id="GQmxgL6uchPmQ1sW0K6H-129" style="shape=partialRectangle;html=1;whiteSpace=wrap;connectable=0;fillColor=none;top=0;left=0;bottom=0;right=0;overflow=hidden;rounded=0;sketch=0;fontFamily=Times New Roman;fontSize=16;fontColor=#333333;startSize=30;" parent="GQmxgL6uchPmQ1sW0K6H-128" vertex="1">
          <mxGeometry width="40" height="28" as="geometry">
            <mxRectangle width="40" height="28" as="alternateBounds" />
          </mxGeometry>
        </mxCell>
        <mxCell id="GQmxgL6uchPmQ1sW0K6H-130" value="city" style="shape=partialRectangle;html=1;whiteSpace=wrap;connectable=0;fillColor=none;top=0;left=0;bottom=0;right=0;align=left;spacingLeft=6;overflow=hidden;rounded=0;sketch=0;fontFamily=Times New Roman;fontSize=16;fontColor=#333333;startSize=30;" parent="GQmxgL6uchPmQ1sW0K6H-128" vertex="1">
          <mxGeometry x="40" width="150" height="28" as="geometry">
            <mxRectangle width="150" height="28" as="alternateBounds" />
          </mxGeometry>
        </mxCell>
        <mxCell id="GQmxgL6uchPmQ1sW0K6H-125" style="shape=tableRow;horizontal=0;startSize=0;swimlaneHead=0;swimlaneBody=0;top=0;left=0;bottom=0;right=0;collapsible=0;dropTarget=0;fillColor=none;points=[[0,0.5],[1,0.5]];portConstraint=eastwest;rounded=0;sketch=0;fontFamily=Times New Roman;fontSize=16;fontColor=#333333;html=1;" parent="GQmxgL6uchPmQ1sW0K6H-115" vertex="1">
          <mxGeometry y="172" width="190" height="28" as="geometry" />
        </mxCell>
        <mxCell id="GQmxgL6uchPmQ1sW0K6H-126" style="shape=partialRectangle;html=1;whiteSpace=wrap;connectable=0;fillColor=none;top=0;left=0;bottom=0;right=0;overflow=hidden;rounded=0;sketch=0;fontFamily=Times New Roman;fontSize=16;fontColor=#333333;startSize=30;" parent="GQmxgL6uchPmQ1sW0K6H-125" vertex="1">
          <mxGeometry width="40" height="28" as="geometry">
            <mxRectangle width="40" height="28" as="alternateBounds" />
          </mxGeometry>
        </mxCell>
        <mxCell id="GQmxgL6uchPmQ1sW0K6H-127" value="adress" style="shape=partialRectangle;html=1;whiteSpace=wrap;connectable=0;fillColor=none;top=0;left=0;bottom=0;right=0;align=left;spacingLeft=6;overflow=hidden;rounded=0;sketch=0;fontFamily=Times New Roman;fontSize=16;fontColor=#333333;startSize=30;" parent="GQmxgL6uchPmQ1sW0K6H-125" vertex="1">
          <mxGeometry x="40" width="150" height="28" as="geometry">
            <mxRectangle width="150" height="28" as="alternateBounds" />
          </mxGeometry>
        </mxCell>
        <mxCell id="GQmxgL6uchPmQ1sW0K6H-122" value="" style="shape=tableRow;horizontal=0;startSize=0;swimlaneHead=0;swimlaneBody=0;top=0;left=0;bottom=0;right=0;collapsible=0;dropTarget=0;fillColor=none;points=[[0,0.5],[1,0.5]];portConstraint=eastwest;rounded=0;sketch=0;fontFamily=Times New Roman;fontSize=16;fontColor=#333333;html=1;" parent="GQmxgL6uchPmQ1sW0K6H-115" vertex="1">
          <mxGeometry y="200" width="190" height="31" as="geometry" />
        </mxCell>
        <mxCell id="GQmxgL6uchPmQ1sW0K6H-123" value="" style="shape=partialRectangle;html=1;whiteSpace=wrap;connectable=0;fillColor=none;top=0;left=0;bottom=0;right=0;overflow=hidden;rounded=0;sketch=0;fontFamily=Times New Roman;fontSize=16;fontColor=#333333;startSize=30;" parent="GQmxgL6uchPmQ1sW0K6H-122" vertex="1">
          <mxGeometry width="40" height="31" as="geometry">
            <mxRectangle width="40" height="31" as="alternateBounds" />
          </mxGeometry>
        </mxCell>
        <mxCell id="GQmxgL6uchPmQ1sW0K6H-124" value="phone_number" style="shape=partialRectangle;html=1;whiteSpace=wrap;connectable=0;fillColor=none;top=0;left=0;bottom=0;right=0;align=left;spacingLeft=6;overflow=hidden;rounded=0;sketch=0;fontFamily=Times New Roman;fontSize=16;fontColor=#333333;startSize=30;" parent="GQmxgL6uchPmQ1sW0K6H-122" vertex="1">
          <mxGeometry x="40" width="150" height="31" as="geometry">
            <mxRectangle width="150" height="31" as="alternateBounds" />
          </mxGeometry>
        </mxCell>
        <mxCell id="GQmxgL6uchPmQ1sW0K6H-143" style="shape=tableRow;horizontal=0;startSize=0;swimlaneHead=0;swimlaneBody=0;top=0;left=0;bottom=0;right=0;collapsible=0;dropTarget=0;fillColor=none;points=[[0,0.5],[1,0.5]];portConstraint=eastwest;rounded=0;sketch=0;fontFamily=Times New Roman;fontSize=16;fontColor=#333333;html=1;" parent="GQmxgL6uchPmQ1sW0K6H-115" vertex="1">
          <mxGeometry y="231" width="190" height="31" as="geometry" />
        </mxCell>
        <mxCell id="GQmxgL6uchPmQ1sW0K6H-144" style="shape=partialRectangle;html=1;whiteSpace=wrap;connectable=0;fillColor=none;top=0;left=0;bottom=0;right=0;overflow=hidden;rounded=0;sketch=0;fontFamily=Times New Roman;fontSize=16;fontColor=#333333;startSize=30;" parent="GQmxgL6uchPmQ1sW0K6H-143" vertex="1">
          <mxGeometry width="40" height="31" as="geometry">
            <mxRectangle width="40" height="31" as="alternateBounds" />
          </mxGeometry>
        </mxCell>
        <mxCell id="GQmxgL6uchPmQ1sW0K6H-145" value="email" style="shape=partialRectangle;html=1;whiteSpace=wrap;connectable=0;fillColor=none;top=0;left=0;bottom=0;right=0;align=left;spacingLeft=6;overflow=hidden;rounded=0;sketch=0;fontFamily=Times New Roman;fontSize=16;fontColor=#333333;startSize=30;" parent="GQmxgL6uchPmQ1sW0K6H-143" vertex="1">
          <mxGeometry x="40" width="150" height="31" as="geometry">
            <mxRectangle width="150" height="31" as="alternateBounds" />
          </mxGeometry>
        </mxCell>
        <mxCell id="GQmxgL6uchPmQ1sW0K6H-174" style="shape=tableRow;horizontal=0;startSize=0;swimlaneHead=0;swimlaneBody=0;top=0;left=0;bottom=0;right=0;collapsible=0;dropTarget=0;fillColor=none;points=[[0,0.5],[1,0.5]];portConstraint=eastwest;rounded=0;sketch=0;fontFamily=Times New Roman;fontSize=16;fontColor=#333333;html=1;" parent="GQmxgL6uchPmQ1sW0K6H-115" vertex="1">
          <mxGeometry y="262" width="190" height="31" as="geometry" />
        </mxCell>
        <mxCell id="GQmxgL6uchPmQ1sW0K6H-175" style="shape=partialRectangle;html=1;whiteSpace=wrap;connectable=0;fillColor=none;top=0;left=0;bottom=0;right=0;overflow=hidden;rounded=0;sketch=0;fontFamily=Times New Roman;fontSize=16;fontColor=#333333;startSize=30;" parent="GQmxgL6uchPmQ1sW0K6H-174" vertex="1">
          <mxGeometry width="40" height="31" as="geometry">
            <mxRectangle width="40" height="31" as="alternateBounds" />
          </mxGeometry>
        </mxCell>
        <mxCell id="GQmxgL6uchPmQ1sW0K6H-176" value="comment" style="shape=partialRectangle;html=1;whiteSpace=wrap;connectable=0;fillColor=none;top=0;left=0;bottom=0;right=0;align=left;spacingLeft=6;overflow=hidden;rounded=0;sketch=0;fontFamily=Times New Roman;fontSize=16;fontColor=#333333;startSize=30;" parent="GQmxgL6uchPmQ1sW0K6H-174" vertex="1">
          <mxGeometry x="40" width="150" height="31" as="geometry">
            <mxRectangle width="150" height="31" as="alternateBounds" />
          </mxGeometry>
        </mxCell>
        <mxCell id="GQmxgL6uchPmQ1sW0K6H-152" style="shape=tableRow;horizontal=0;startSize=0;swimlaneHead=0;swimlaneBody=0;top=0;left=0;bottom=0;right=0;collapsible=0;dropTarget=0;fillColor=none;points=[[0,0.5],[1,0.5]];portConstraint=eastwest;rounded=0;sketch=0;fontFamily=Times New Roman;fontSize=16;fontColor=#333333;html=1;" parent="GQmxgL6uchPmQ1sW0K6H-115" vertex="1">
          <mxGeometry y="293" width="190" height="31" as="geometry" />
        </mxCell>
        <mxCell id="GQmxgL6uchPmQ1sW0K6H-153" style="shape=partialRectangle;html=1;whiteSpace=wrap;connectable=0;fillColor=none;top=0;left=0;bottom=0;right=0;overflow=hidden;rounded=0;sketch=0;fontFamily=Times New Roman;fontSize=16;fontColor=#333333;startSize=30;" parent="GQmxgL6uchPmQ1sW0K6H-152" vertex="1">
          <mxGeometry width="40" height="31" as="geometry">
            <mxRectangle width="40" height="31" as="alternateBounds" />
          </mxGeometry>
        </mxCell>
        <mxCell id="GQmxgL6uchPmQ1sW0K6H-154" value="ship_price" style="shape=partialRectangle;html=1;whiteSpace=wrap;connectable=0;fillColor=none;top=0;left=0;bottom=0;right=0;align=left;spacingLeft=6;overflow=hidden;rounded=0;sketch=0;fontFamily=Times New Roman;fontSize=16;fontColor=#333333;startSize=30;" parent="GQmxgL6uchPmQ1sW0K6H-152" vertex="1">
          <mxGeometry x="40" width="150" height="31" as="geometry">
            <mxRectangle width="150" height="31" as="alternateBounds" />
          </mxGeometry>
        </mxCell>
        <mxCell id="O1L0a4TU8t0WFNpWx0Af-3" style="shape=tableRow;horizontal=0;startSize=0;swimlaneHead=0;swimlaneBody=0;top=0;left=0;bottom=0;right=0;collapsible=0;dropTarget=0;fillColor=none;points=[[0,0.5],[1,0.5]];portConstraint=eastwest;rounded=0;sketch=0;fontFamily=Times New Roman;fontSize=16;fontColor=#333333;html=1;" vertex="1" parent="GQmxgL6uchPmQ1sW0K6H-115">
          <mxGeometry y="324" width="190" height="31" as="geometry" />
        </mxCell>
        <mxCell id="O1L0a4TU8t0WFNpWx0Af-4" style="shape=partialRectangle;html=1;whiteSpace=wrap;connectable=0;fillColor=none;top=0;left=0;bottom=0;right=0;overflow=hidden;rounded=0;sketch=0;fontFamily=Times New Roman;fontSize=16;fontColor=#333333;startSize=30;" vertex="1" parent="O1L0a4TU8t0WFNpWx0Af-3">
          <mxGeometry width="40" height="31" as="geometry">
            <mxRectangle width="40" height="31" as="alternateBounds" />
          </mxGeometry>
        </mxCell>
        <mxCell id="O1L0a4TU8t0WFNpWx0Af-5" value="ship_id" style="shape=partialRectangle;html=1;whiteSpace=wrap;connectable=0;fillColor=none;top=0;left=0;bottom=0;right=0;align=left;spacingLeft=6;overflow=hidden;rounded=0;sketch=0;fontFamily=Times New Roman;fontSize=16;fontColor=#333333;startSize=30;" vertex="1" parent="O1L0a4TU8t0WFNpWx0Af-3">
          <mxGeometry x="40" width="150" height="31" as="geometry">
            <mxRectangle width="150" height="31" as="alternateBounds" />
          </mxGeometry>
        </mxCell>
        <mxCell id="GQmxgL6uchPmQ1sW0K6H-171" style="shape=tableRow;horizontal=0;startSize=0;swimlaneHead=0;swimlaneBody=0;top=0;left=0;bottom=0;right=0;collapsible=0;dropTarget=0;fillColor=none;points=[[0,0.5],[1,0.5]];portConstraint=eastwest;rounded=0;sketch=0;fontFamily=Times New Roman;fontSize=16;fontColor=#333333;html=1;" parent="GQmxgL6uchPmQ1sW0K6H-115" vertex="1">
          <mxGeometry y="355" width="190" height="31" as="geometry" />
        </mxCell>
        <mxCell id="GQmxgL6uchPmQ1sW0K6H-172" style="shape=partialRectangle;html=1;whiteSpace=wrap;connectable=0;fillColor=none;top=0;left=0;bottom=0;right=0;overflow=hidden;rounded=0;sketch=0;fontFamily=Times New Roman;fontSize=16;fontColor=#333333;startSize=30;" parent="GQmxgL6uchPmQ1sW0K6H-171" vertex="1">
          <mxGeometry width="40" height="31" as="geometry">
            <mxRectangle width="40" height="31" as="alternateBounds" />
          </mxGeometry>
        </mxCell>
        <mxCell id="GQmxgL6uchPmQ1sW0K6H-173" value="state" style="shape=partialRectangle;html=1;whiteSpace=wrap;connectable=0;fillColor=none;top=0;left=0;bottom=0;right=0;align=left;spacingLeft=6;overflow=hidden;rounded=0;sketch=0;fontFamily=Times New Roman;fontSize=16;fontColor=#333333;startSize=30;" parent="GQmxgL6uchPmQ1sW0K6H-171" vertex="1">
          <mxGeometry x="40" width="150" height="31" as="geometry">
            <mxRectangle width="150" height="31" as="alternateBounds" />
          </mxGeometry>
        </mxCell>
        <mxCell id="GQmxgL6uchPmQ1sW0K6H-140" style="shape=tableRow;horizontal=0;startSize=0;swimlaneHead=0;swimlaneBody=0;top=0;left=0;bottom=0;right=0;collapsible=0;dropTarget=0;fillColor=none;points=[[0,0.5],[1,0.5]];portConstraint=eastwest;rounded=0;sketch=0;fontFamily=Times New Roman;fontSize=16;fontColor=#333333;html=1;" parent="GQmxgL6uchPmQ1sW0K6H-115" vertex="1">
          <mxGeometry y="386" width="190" height="31" as="geometry" />
        </mxCell>
        <mxCell id="GQmxgL6uchPmQ1sW0K6H-141" style="shape=partialRectangle;html=1;whiteSpace=wrap;connectable=0;fillColor=none;top=0;left=0;bottom=0;right=0;overflow=hidden;rounded=0;sketch=0;fontFamily=Times New Roman;fontSize=16;fontColor=#333333;startSize=30;" parent="GQmxgL6uchPmQ1sW0K6H-140" vertex="1">
          <mxGeometry width="40" height="31" as="geometry">
            <mxRectangle width="40" height="31" as="alternateBounds" />
          </mxGeometry>
        </mxCell>
        <mxCell id="GQmxgL6uchPmQ1sW0K6H-142" value="promocode" style="shape=partialRectangle;html=1;whiteSpace=wrap;connectable=0;fillColor=none;top=0;left=0;bottom=0;right=0;align=left;spacingLeft=6;overflow=hidden;rounded=0;sketch=0;fontFamily=Times New Roman;fontSize=16;fontColor=#333333;startSize=30;" parent="GQmxgL6uchPmQ1sW0K6H-140" vertex="1">
          <mxGeometry x="40" width="150" height="31" as="geometry">
            <mxRectangle width="150" height="31" as="alternateBounds" />
          </mxGeometry>
        </mxCell>
        <mxCell id="GQmxgL6uchPmQ1sW0K6H-155" value="Ordered Product" style="shape=table;startSize=30;container=1;collapsible=0;childLayout=tableLayout;fixedRows=1;rowLines=0;fontStyle=1;rounded=1;sketch=0;fontFamily=Times New Roman;fontSize=16;fontColor=#333333;fillColor=#f5f5f5;gradientColor=none;html=1;strokeColor=#666666;" parent="WIyWlLk6GJQsqaUBKTNV-1" vertex="1">
          <mxGeometry x="332" y="70" width="190" height="182" as="geometry" />
        </mxCell>
        <mxCell id="GQmxgL6uchPmQ1sW0K6H-156" value="" style="shape=tableRow;horizontal=0;startSize=0;swimlaneHead=0;swimlaneBody=0;top=0;left=0;bottom=0;right=0;collapsible=0;dropTarget=0;fillColor=none;points=[[0,0.5],[1,0.5]];portConstraint=eastwest;rounded=0;sketch=0;fontFamily=Times New Roman;fontSize=16;fontColor=#333333;html=1;" parent="GQmxgL6uchPmQ1sW0K6H-155" vertex="1">
          <mxGeometry y="30" width="190" height="30" as="geometry" />
        </mxCell>
        <mxCell id="GQmxgL6uchPmQ1sW0K6H-157" value="PK, FK1" style="shape=partialRectangle;html=1;whiteSpace=wrap;connectable=0;fillColor=none;top=0;left=0;bottom=0;right=0;overflow=hidden;pointerEvents=1;rounded=0;sketch=0;fontFamily=Times New Roman;fontSize=16;fontColor=#333333;startSize=30;fontStyle=1" parent="GQmxgL6uchPmQ1sW0K6H-156" vertex="1">
          <mxGeometry width="65" height="30" as="geometry">
            <mxRectangle width="65" height="30" as="alternateBounds" />
          </mxGeometry>
        </mxCell>
        <mxCell id="GQmxgL6uchPmQ1sW0K6H-158" value="product_id" style="shape=partialRectangle;html=1;whiteSpace=wrap;connectable=0;fillColor=none;top=0;left=0;bottom=0;right=0;align=left;spacingLeft=6;overflow=hidden;rounded=0;sketch=0;fontFamily=Times New Roman;fontSize=16;fontColor=#333333;startSize=30;fontStyle=5" parent="GQmxgL6uchPmQ1sW0K6H-156" vertex="1">
          <mxGeometry x="65" width="125" height="30" as="geometry">
            <mxRectangle width="125" height="30" as="alternateBounds" />
          </mxGeometry>
        </mxCell>
        <mxCell id="GQmxgL6uchPmQ1sW0K6H-165" style="shape=tableRow;horizontal=0;startSize=0;swimlaneHead=0;swimlaneBody=0;top=0;left=0;bottom=0;right=0;collapsible=0;dropTarget=0;fillColor=none;points=[[0,0.5],[1,0.5]];portConstraint=eastwest;rounded=0;sketch=0;fontFamily=Times New Roman;fontSize=16;fontColor=#333333;html=1;" parent="GQmxgL6uchPmQ1sW0K6H-155" vertex="1">
          <mxGeometry y="60" width="190" height="30" as="geometry" />
        </mxCell>
        <mxCell id="GQmxgL6uchPmQ1sW0K6H-166" value="PK, FK2" style="shape=partialRectangle;html=1;whiteSpace=wrap;connectable=0;fillColor=none;top=0;left=0;bottom=0;right=0;overflow=hidden;pointerEvents=1;rounded=0;sketch=0;fontFamily=Times New Roman;fontSize=16;fontColor=#333333;startSize=30;fontStyle=1" parent="GQmxgL6uchPmQ1sW0K6H-165" vertex="1">
          <mxGeometry width="65" height="30" as="geometry">
            <mxRectangle width="65" height="30" as="alternateBounds" />
          </mxGeometry>
        </mxCell>
        <mxCell id="GQmxgL6uchPmQ1sW0K6H-167" value="order_id" style="shape=partialRectangle;html=1;whiteSpace=wrap;connectable=0;fillColor=none;top=0;left=0;bottom=0;right=0;align=left;spacingLeft=6;overflow=hidden;rounded=0;sketch=0;fontFamily=Times New Roman;fontSize=16;fontColor=#333333;startSize=30;fontStyle=5" parent="GQmxgL6uchPmQ1sW0K6H-165" vertex="1">
          <mxGeometry x="65" width="125" height="30" as="geometry">
            <mxRectangle width="125" height="30" as="alternateBounds" />
          </mxGeometry>
        </mxCell>
        <mxCell id="GQmxgL6uchPmQ1sW0K6H-159" style="shape=tableRow;horizontal=0;startSize=0;swimlaneHead=0;swimlaneBody=0;top=0;left=0;bottom=1;right=0;collapsible=0;dropTarget=0;fillColor=none;points=[[0,0.5],[1,0.5]];portConstraint=eastwest;rounded=0;sketch=0;fontFamily=Times New Roman;fontSize=16;fontColor=#333333;html=1;" parent="GQmxgL6uchPmQ1sW0K6H-155" vertex="1">
          <mxGeometry y="90" width="190" height="30" as="geometry" />
        </mxCell>
        <mxCell id="GQmxgL6uchPmQ1sW0K6H-160" value="PK" style="shape=partialRectangle;html=1;whiteSpace=wrap;connectable=0;fillColor=none;top=0;left=0;bottom=0;right=0;overflow=hidden;rounded=0;sketch=0;fontFamily=Times New Roman;fontSize=16;fontColor=#333333;startSize=30;fontStyle=1" parent="GQmxgL6uchPmQ1sW0K6H-159" vertex="1">
          <mxGeometry width="65" height="30" as="geometry">
            <mxRectangle width="65" height="30" as="alternateBounds" />
          </mxGeometry>
        </mxCell>
        <mxCell id="GQmxgL6uchPmQ1sW0K6H-161" value="size" style="shape=partialRectangle;html=1;whiteSpace=wrap;connectable=0;fillColor=none;top=0;left=0;bottom=0;right=0;align=left;spacingLeft=6;overflow=hidden;rounded=0;sketch=0;fontFamily=Times New Roman;fontSize=16;fontColor=#333333;startSize=30;fontStyle=5" parent="GQmxgL6uchPmQ1sW0K6H-159" vertex="1">
          <mxGeometry x="65" width="125" height="30" as="geometry">
            <mxRectangle width="125" height="30" as="alternateBounds" />
          </mxGeometry>
        </mxCell>
        <mxCell id="GQmxgL6uchPmQ1sW0K6H-162" value="" style="shape=tableRow;horizontal=0;startSize=0;swimlaneHead=0;swimlaneBody=0;top=0;left=0;bottom=0;right=0;collapsible=0;dropTarget=0;fillColor=none;points=[[0,0.5],[1,0.5]];portConstraint=eastwest;rounded=0;sketch=0;fontFamily=Times New Roman;fontSize=16;fontColor=#333333;html=1;" parent="GQmxgL6uchPmQ1sW0K6H-155" vertex="1">
          <mxGeometry y="120" width="190" height="31" as="geometry" />
        </mxCell>
        <mxCell id="GQmxgL6uchPmQ1sW0K6H-163" value="" style="shape=partialRectangle;html=1;whiteSpace=wrap;connectable=0;fillColor=none;top=0;left=0;bottom=0;right=0;overflow=hidden;rounded=0;sketch=0;fontFamily=Times New Roman;fontSize=16;fontColor=#333333;startSize=30;" parent="GQmxgL6uchPmQ1sW0K6H-162" vertex="1">
          <mxGeometry width="65" height="31" as="geometry">
            <mxRectangle width="65" height="31" as="alternateBounds" />
          </mxGeometry>
        </mxCell>
        <mxCell id="GQmxgL6uchPmQ1sW0K6H-164" value="count" style="shape=partialRectangle;html=1;whiteSpace=wrap;connectable=0;fillColor=none;top=0;left=0;bottom=0;right=0;align=left;spacingLeft=6;overflow=hidden;rounded=0;sketch=0;fontFamily=Times New Roman;fontSize=16;fontColor=#333333;startSize=30;" parent="GQmxgL6uchPmQ1sW0K6H-162" vertex="1">
          <mxGeometry x="65" width="125" height="31" as="geometry">
            <mxRectangle width="125" height="31" as="alternateBounds" />
          </mxGeometry>
        </mxCell>
        <mxCell id="GQmxgL6uchPmQ1sW0K6H-168" style="shape=tableRow;horizontal=0;startSize=0;swimlaneHead=0;swimlaneBody=0;top=0;left=0;bottom=0;right=0;collapsible=0;dropTarget=0;fillColor=none;points=[[0,0.5],[1,0.5]];portConstraint=eastwest;rounded=0;sketch=0;fontFamily=Times New Roman;fontSize=16;fontColor=#333333;html=1;" parent="GQmxgL6uchPmQ1sW0K6H-155" vertex="1">
          <mxGeometry y="151" width="190" height="31" as="geometry" />
        </mxCell>
        <mxCell id="GQmxgL6uchPmQ1sW0K6H-169" style="shape=partialRectangle;html=1;whiteSpace=wrap;connectable=0;fillColor=none;top=0;left=0;bottom=0;right=0;overflow=hidden;rounded=0;sketch=0;fontFamily=Times New Roman;fontSize=16;fontColor=#333333;startSize=30;" parent="GQmxgL6uchPmQ1sW0K6H-168" vertex="1">
          <mxGeometry width="65" height="31" as="geometry">
            <mxRectangle width="65" height="31" as="alternateBounds" />
          </mxGeometry>
        </mxCell>
        <mxCell id="GQmxgL6uchPmQ1sW0K6H-170" value="price" style="shape=partialRectangle;html=1;whiteSpace=wrap;connectable=0;fillColor=none;top=0;left=0;bottom=0;right=0;align=left;spacingLeft=6;overflow=hidden;rounded=0;sketch=0;fontFamily=Times New Roman;fontSize=16;fontColor=#333333;startSize=30;" parent="GQmxgL6uchPmQ1sW0K6H-168" vertex="1">
          <mxGeometry x="65" width="125" height="31" as="geometry">
            <mxRectangle width="125" height="31" as="alternateBounds" />
          </mxGeometry>
        </mxCell>
        <mxCell id="GQmxgL6uchPmQ1sW0K6H-177" value="Tag" style="shape=table;startSize=30;container=1;collapsible=0;childLayout=tableLayout;fixedRows=1;rowLines=0;fontStyle=1;rounded=1;sketch=0;fontFamily=Times New Roman;fontSize=16;fontColor=#333333;fillColor=#f5f5f5;gradientColor=none;html=1;strokeColor=#666666;" parent="WIyWlLk6GJQsqaUBKTNV-1" vertex="1">
          <mxGeometry x="587" y="568.5" width="190" height="90" as="geometry" />
        </mxCell>
        <mxCell id="GQmxgL6uchPmQ1sW0K6H-178" value="" style="shape=tableRow;horizontal=0;startSize=0;swimlaneHead=0;swimlaneBody=0;top=0;left=0;bottom=0;right=0;collapsible=0;dropTarget=0;fillColor=none;points=[[0,0.5],[1,0.5]];portConstraint=eastwest;rounded=0;sketch=0;fontFamily=Times New Roman;fontSize=16;fontColor=#333333;html=1;fontStyle=5" parent="GQmxgL6uchPmQ1sW0K6H-177" vertex="1">
          <mxGeometry y="30" width="190" height="30" as="geometry" />
        </mxCell>
        <mxCell id="GQmxgL6uchPmQ1sW0K6H-179" value="PK" style="shape=partialRectangle;html=1;whiteSpace=wrap;connectable=0;fillColor=none;top=0;left=0;bottom=0;right=0;overflow=hidden;pointerEvents=1;rounded=0;sketch=0;fontFamily=Times New Roman;fontSize=16;fontColor=#333333;startSize=30;fontStyle=1" parent="GQmxgL6uchPmQ1sW0K6H-178" vertex="1">
          <mxGeometry width="65" height="30" as="geometry">
            <mxRectangle width="65" height="30" as="alternateBounds" />
          </mxGeometry>
        </mxCell>
        <mxCell id="GQmxgL6uchPmQ1sW0K6H-180" value="tag" style="shape=partialRectangle;html=1;whiteSpace=wrap;connectable=0;fillColor=none;top=0;left=0;bottom=0;right=0;align=left;spacingLeft=6;overflow=hidden;rounded=0;sketch=0;fontFamily=Times New Roman;fontSize=16;fontColor=#333333;startSize=30;fontStyle=5" parent="GQmxgL6uchPmQ1sW0K6H-178" vertex="1">
          <mxGeometry x="65" width="125" height="30" as="geometry">
            <mxRectangle width="125" height="30" as="alternateBounds" />
          </mxGeometry>
        </mxCell>
        <mxCell id="GQmxgL6uchPmQ1sW0K6H-181" style="shape=tableRow;horizontal=0;startSize=0;swimlaneHead=0;swimlaneBody=0;top=0;left=0;bottom=0;right=0;collapsible=0;dropTarget=0;fillColor=none;points=[[0,0.5],[1,0.5]];portConstraint=eastwest;rounded=0;sketch=0;fontFamily=Times New Roman;fontSize=16;fontColor=#333333;html=1;fontStyle=5" parent="GQmxgL6uchPmQ1sW0K6H-177" vertex="1">
          <mxGeometry y="60" width="190" height="30" as="geometry" />
        </mxCell>
        <mxCell id="GQmxgL6uchPmQ1sW0K6H-182" value="PK, FK" style="shape=partialRectangle;html=1;whiteSpace=wrap;connectable=0;fillColor=none;top=0;left=0;bottom=0;right=0;overflow=hidden;rounded=0;sketch=0;fontFamily=Times New Roman;fontSize=16;fontColor=#333333;startSize=30;fontStyle=1" parent="GQmxgL6uchPmQ1sW0K6H-181" vertex="1">
          <mxGeometry width="65" height="30" as="geometry">
            <mxRectangle width="65" height="30" as="alternateBounds" />
          </mxGeometry>
        </mxCell>
        <mxCell id="GQmxgL6uchPmQ1sW0K6H-183" value="product_id" style="shape=partialRectangle;html=1;whiteSpace=wrap;connectable=0;fillColor=none;top=0;left=0;bottom=0;right=0;align=left;spacingLeft=6;overflow=hidden;rounded=0;sketch=0;fontFamily=Times New Roman;fontSize=16;fontColor=#333333;startSize=30;fontStyle=5" parent="GQmxgL6uchPmQ1sW0K6H-181" vertex="1">
          <mxGeometry x="65" width="125" height="30" as="geometry">
            <mxRectangle width="125" height="30" as="alternateBounds" />
          </mxGeometry>
        </mxCell>
        <mxCell id="GQmxgL6uchPmQ1sW0K6H-187" value="" style="fontSize=12;html=1;endArrow=ERoneToMany;startArrow=ERmandOne;rounded=0;fontFamily=Times New Roman;fontColor=#333333;startSize=15;strokeWidth=1;endSize=15;edgeStyle=elbowEdgeStyle;elbow=vertical;" parent="WIyWlLk6GJQsqaUBKTNV-1" source="GQmxgL6uchPmQ1sW0K6H-115" target="GQmxgL6uchPmQ1sW0K6H-155" edge="1">
          <mxGeometry width="100" height="100" relative="1" as="geometry">
            <mxPoint x="199" y="335" as="sourcePoint" />
            <mxPoint x="299" y="235" as="targetPoint" />
          </mxGeometry>
        </mxCell>
        <mxCell id="GQmxgL6uchPmQ1sW0K6H-198" value="" style="edgeStyle=elbowEdgeStyle;fontSize=12;html=1;endArrow=ERoneToMany;startArrow=ERmandOne;rounded=0;fontFamily=Times New Roman;fontColor=#333333;startSize=15;strokeWidth=1;endSize=15;elbow=vertical;exitX=0.8;exitY=1;exitDx=0;exitDy=0;exitPerimeter=0;" parent="WIyWlLk6GJQsqaUBKTNV-1" source="GQmxgL6uchPmQ1sW0K6H-43" target="GQmxgL6uchPmQ1sW0K6H-177" edge="1">
          <mxGeometry width="100" height="100" relative="1" as="geometry">
            <mxPoint x="558" y="84" as="sourcePoint" />
            <mxPoint x="496" y="-18" as="targetPoint" />
            <Array as="points">
              <mxPoint x="543" y="498" />
              <mxPoint x="430" y="490" />
              <mxPoint x="240" y="466" />
              <mxPoint x="751" y="466" />
              <mxPoint x="216" y="455" />
              <mxPoint x="421" y="465" />
            </Array>
          </mxGeometry>
        </mxCell>
        <mxCell id="GQmxgL6uchPmQ1sW0K6H-199" value="" style="edgeStyle=elbowEdgeStyle;fontSize=12;html=1;endArrow=ERoneToMany;startArrow=ERmandOne;rounded=0;fontFamily=Times New Roman;fontColor=#333333;startSize=15;strokeWidth=1;endSize=15;elbow=vertical;" parent="WIyWlLk6GJQsqaUBKTNV-1" source="GQmxgL6uchPmQ1sW0K6H-25" target="GQmxgL6uchPmQ1sW0K6H-64" edge="1">
          <mxGeometry width="100" height="100" relative="1" as="geometry">
            <mxPoint x="250" y="440" as="sourcePoint" />
            <mxPoint x="692" y="540.5" as="targetPoint" />
            <Array as="points">
              <mxPoint x="278" y="512" />
              <mxPoint x="303" y="508" />
              <mxPoint x="761" y="476" />
              <mxPoint x="226" y="465" />
              <mxPoint x="431" y="475" />
            </Array>
          </mxGeometry>
        </mxCell>
        <mxCell id="GQmxgL6uchPmQ1sW0K6H-203" value="" style="edgeStyle=elbowEdgeStyle;fontSize=12;html=1;endArrow=ERzeroToMany;startArrow=ERmandOne;rounded=0;strokeWidth=1;fontFamily=Times New Roman;fontColor=#333333;startSize=15;endSize=15;" parent="WIyWlLk6GJQsqaUBKTNV-1" source="GQmxgL6uchPmQ1sW0K6H-25" target="GQmxgL6uchPmQ1sW0K6H-105" edge="1">
          <mxGeometry width="100" height="100" relative="1" as="geometry">
            <mxPoint x="195" y="405" as="sourcePoint" />
            <mxPoint x="295" y="305" as="targetPoint" />
            <Array as="points">
              <mxPoint x="111" y="460" />
            </Array>
          </mxGeometry>
        </mxCell>
        <mxCell id="GQmxgL6uchPmQ1sW0K6H-204" value="" style="edgeStyle=elbowEdgeStyle;fontSize=12;html=1;endArrow=ERoneToMany;startArrow=ERmandOne;rounded=0;fontFamily=Times New Roman;fontColor=#333333;startSize=15;strokeWidth=1;endSize=15;elbow=vertical;" parent="WIyWlLk6GJQsqaUBKTNV-1" source="GQmxgL6uchPmQ1sW0K6H-95" target="GQmxgL6uchPmQ1sW0K6H-25" edge="1">
          <mxGeometry width="100" height="100" relative="1" as="geometry">
            <mxPoint x="250" y="440" as="sourcePoint" />
            <mxPoint x="692" y="540.5" as="targetPoint" />
          </mxGeometry>
        </mxCell>
        <mxCell id="GQmxgL6uchPmQ1sW0K6H-205" value="" style="fontSize=12;html=1;endArrow=ERoneToMany;startArrow=ERmandOne;rounded=0;fontFamily=Times New Roman;fontColor=#333333;startSize=15;strokeWidth=1;endSize=15;edgeStyle=elbowEdgeStyle;elbow=vertical;" parent="WIyWlLk6GJQsqaUBKTNV-1" source="GQmxgL6uchPmQ1sW0K6H-25" target="GQmxgL6uchPmQ1sW0K6H-155" edge="1">
          <mxGeometry width="100" height="100" relative="1" as="geometry">
            <mxPoint x="594" y="171" as="sourcePoint" />
            <mxPoint x="532" y="171" as="targetPoint" />
          </mxGeometry>
        </mxCell>
        <mxCell id="rOEcnwzPcKk2AEWakI-U-0" value="" style="edgeStyle=elbowEdgeStyle;fontSize=12;html=1;endArrow=ERoneToMany;startArrow=ERmandOne;rounded=0;fontFamily=Times New Roman;fontColor=#333333;startSize=15;strokeWidth=1;endSize=15;" parent="WIyWlLk6GJQsqaUBKTNV-1" source="GQmxgL6uchPmQ1sW0K6H-95" target="GQmxgL6uchPmQ1sW0K6H-95" edge="1">
          <mxGeometry width="100" height="100" relative="1" as="geometry">
            <mxPoint x="342" y="380" as="sourcePoint" />
            <mxPoint x="280" y="380" as="targetPoint" />
            <Array as="points">
              <mxPoint x="551" y="416" />
            </Array>
          </mxGeometry>
        </mxCell>
      </root>
    </mxGraphModel>
  </diagram>
</mxfile>
